<?xml version="1.0" standalone="no"?>
<!DOCTYPE svg PUBLIC "-//W3C//DTD SVG 20010904//EN"
 "http://www.w3.org/TR/2001/REC-SVG-20010904/DTD/svg10.dtd">
<svg version="1.0" xmlns="http://www.w3.org/2000/svg"
 width="300.000000pt" height="300.000000pt" viewBox="0 0 300.000000 300.000000"
 preserveAspectRatio="xMidYMid meet">
<metadata>
Created by potrace 1.10, written by Peter Selinger 2001-2011
</metadata>
<g transform="translate(0.000000,300.000000) scale(0.100000,-0.100000)"
fill="#000000" stroke="none">
<path d="M60 1500 l0 -1440 1440 0 1440 0 0 1440 0 1440 -1440 0 -1440 0 0
-1440z m2846 1398 c5 -8 8 -2346 4 -2791 0 -16 -72 -17 -1407 -15 l-1408 3 -5
1010 c-3 556 -4 1189 -2 1408 l2 397 1405 0 c1055 0 1406 -3 1411 -12z"/>
<path d="M1449 2321 c-25 -26 -29 -36 -24 -61 5 -24 3 -30 -10 -30 -36 0 -133
-57 -183 -107 -65 -64 -109 -155 -118 -241 -7 -62 -7 -62 -39 -62 -33 0 -65
-25 -65 -52 0 -25 44 -58 77 -58 23 0 33 -6 38 -20 3 -11 21 -31 39 -45 l33
-25 294 0 c321 0 329 2 364 57 16 25 27 32 53 33 36 0 72 30 72 58 0 28 -32
52 -68 52 -30 0 -32 2 -32 39 0 63 -37 164 -82 225 -46 62 -128 122 -192 141
-37 11 -41 15 -38 42 4 36 -22 70 -60 79 -22 5 -34 0 -59 -25z m75 -30 c25
-27 11 -53 -28 -49 -24 2 -32 8 -34 27 -6 40 33 54 62 22z m111 -121 c70 -34
89 -49 137 -112 39 -51 64 -117 71 -190 l5 -48 -79 0 -79 0 0 55 c0 54 1 55
25 49 38 -10 31 11 -22 58 -27 24 -81 74 -120 112 l-73 69 -52 -48 c-156 -144
-188 -176 -183 -185 3 -5 12 -7 20 -3 12 4 15 -6 15 -51 l0 -56 -76 0 -77 0 5
64 c12 150 143 291 293 317 61 10 124 0 190 -31z m-57 -135 l72 -74 0 -71 0
-70 -155 0 -155 0 0 72 0 72 78 73 c42 39 80 72 83 73 3 0 38 -34 77 -75z
m359 -259 c3 -3 0 -12 -7 -21 -11 -13 -69 -15 -434 -15 -417 0 -446 2 -446 32
0 4 181 9 403 10 447 3 475 3 484 -6z m-117 -91 l-23 -25 -294 0 c-254 0 -297
2 -318 16 -14 9 -25 20 -25 25 0 5 150 9 342 9 l341 0 -23 -25z"/>
<path d="M1690 2104 c0 -3 8 -18 19 -32 10 -15 26 -47 34 -72 12 -34 16 -39
16 -20 1 14 -13 49 -29 78 -28 47 -40 62 -40 46z"/>
<path d="M1222 1998 c-7 -7 -12 -21 -12 -32 1 -20 1 -20 20 3 29 34 22 59 -8
29z"/>
<path d="M1183 1884 c-7 -18 11 -39 26 -30 17 11 13 46 -4 46 -9 0 -18 -7 -22
-16z"/>
<path d="M1434 1975 c-2 -20 3 -25 22 -25 19 0 24 5 24 25 0 19 -5 25 -22 25
-17 0 -23 -6 -24 -25z"/>
<path d="M1510 1975 c0 -20 5 -25 25 -25 20 0 25 5 25 25 0 20 -5 25 -25 25
-20 0 -25 -5 -25 -25z"/>
<path d="M1432 1898 c2 -15 11 -24 26 -26 18 -3 22 1 22 22 0 21 -5 26 -26 26
-21 0 -25 -4 -22 -22z"/>
<path d="M1512 1898 c2 -15 10 -23 23 -23 13 0 21 8 23 23 3 18 -1 22 -23 22
-22 0 -26 -4 -23 -22z"/>
<path d="M958 1543 c-29 -4 -40 -33 -14 -33 12 0 15 -24 18 -122 3 -106 1
-122 -14 -132 -31 -19 -20 -26 42 -26 57 0 78 11 45 24 -11 4 -15 21 -15 65 0
53 3 63 25 77 14 9 32 13 45 9 18 -6 20 -15 20 -81 0 -59 -3 -74 -15 -74 -8 0
-15 -4 -15 -10 0 -6 27 -10 60 -10 57 0 78 11 45 24 -11 4 -15 23 -15 80 0 69
-2 76 -26 95 -33 26 -50 26 -91 1 l-33 -20 0 70 c0 76 3 73 -62 63z"/>
<path d="M2206 1537 c-23 -17 -17 -51 10 -55 28 -4 51 24 38 46 -14 22 -27 24
-48 9z"/>
<path d="M701 1521 c-75 -40 -105 -153 -58 -221 39 -58 71 -75 140 -74 90 1
107 13 107 74 0 44 3 50 21 50 11 0 19 5 17 12 -4 10 -74 14 -139 9 -18 -2 1
-21 22 -21 16 0 19 -7 19 -50 l0 -50 -36 0 c-50 0 -73 15 -95 63 -22 50 -24
96 -5 142 17 40 42 55 94 55 38 0 72 -22 72 -48 0 -7 7 -12 15 -12 10 0 15 11
15 35 0 31 -3 35 -37 44 -56 16 -113 13 -152 -8z"/>
<path d="M1630 1531 c0 -5 7 -11 15 -15 22 -8 22 -254 0 -262 -34 -13 -11 -24
50 -24 63 0 85 12 45 25 -16 5 -20 15 -20 50 0 24 5 47 11 51 6 3 33 -16 60
-42 42 -42 47 -51 34 -60 -27 -20 -17 -24 55 -24 l70 0 -86 82 -85 82 53 53
c29 30 63 56 76 59 12 4 22 12 22 20 0 10 -15 14 -60 14 -60 0 -75 -10 -43
-29 16 -8 10 -17 -42 -74 -60 -65 -82 -81 -71 -51 3 9 6 39 6 69 0 44 3 53 20
58 11 3 20 10 20 16 0 7 -25 11 -65 11 -36 0 -65 -4 -65 -9z"/>
<path d="M1260 1437 c-16 -8 -25 -21 -25 -36 0 -34 23 -38 35 -7 17 45 87 26
78 -20 -2 -11 -20 -21 -50 -29 -26 -6 -54 -17 -62 -25 -19 -15 -21 -61 -4 -78
17 -17 83 -15 98 3 11 14 14 13 24 -1 8 -10 23 -14 41 -12 30 3 48 28 21 28
-13 0 -16 13 -16 70 0 62 -3 74 -25 95 -27 28 -74 33 -115 12z m90 -130 c0
-27 -17 -47 -41 -47 -38 0 -48 53 -11 63 40 11 52 7 52 -16z"/>
<path d="M1468 1443 c-29 -4 -39 -23 -13 -23 12 0 15 -15 15 -79 0 -61 -3 -80
-15 -85 -34 -13 -12 -26 45 -26 63 0 71 5 43 25 -13 10 -17 25 -15 61 5 81 8
86 52 79 30 -5 39 -3 44 11 8 20 -10 44 -32 44 -9 0 -29 -12 -45 -27 l-29 -28
7 28 c8 29 6 29 -57 20z"/>
<path d="M1988 1438 c-22 -7 -28 -16 -28 -39 0 -37 27 -39 40 -3 8 20 16 25
38 22 22 -2 28 -8 30 -35 3 -30 1 -33 -25 -33 -15 0 -43 -9 -60 -20 -39 -23
-46 -72 -14 -90 29 -15 77 -12 92 6 11 14 13 14 21 0 11 -20 64 -21 72 -1 3 9
0 15 -8 15 -10 0 -15 21 -18 76 -3 65 -7 79 -27 95 -25 21 -70 23 -113 7z m82
-133 c0 -29 -4 -36 -26 -41 -26 -7 -44 7 -44 34 0 10 46 38 68 42 1 0 2 -16 2
-35z"/>
<path d="M2202 1440 c-37 -9 -54 -20 -30 -20 21 0 28 -21 28 -90 0 -39 -5 -62
-15 -70 -26 -22 -16 -30 35 -30 48 0 66 12 35 23 -12 5 -13 23 -8 102 3 54 2
95 -3 94 -5 -1 -24 -5 -42 -9z"/>
</g>
</svg>
